<?xml version="1.0" standalone="no"?><!DOCTYPE svg PUBLIC "-//W3C//DTD SVG 1.1//EN" "http://www.w3.org/Graphics/SVG/1.1/DTD/svg11.dtd"><svg xmlns:xlink="http://www.w3.org/1999/xlink" xmlns="http://www.w3.org/2000/svg" version="1.1" width="200" height="200" viewBox="0 0 200 200"><defs><style type="text/css"><![CDATA[
@font-face {
  font-family: "ifont";
  src: url("//at.alicdn.com/t/font_1442373896_4754455.eot?#iefix") format("embedded-opentype"), url("//at.alicdn.com/t/font_1442373896_4754455.woff") format("woff"), url("//at.alicdn.com/t/font_1442373896_4754455.ttf") format("truetype"), url("//at.alicdn.com/t/font_1442373896_4754455.svg#ifont") format("svg");
}

]]></style></defs><g class="transform-group"><g transform="scale(0.1953125, 0.1953125)"><path d="M806.019407 691.518606c2.393513 7.188726 4.309142 16.412808 5.748934 27.676339 1.439792 11.260461 2.155083 22.642696 2.155083 34.141588 0 11.504008-0.837064 22.286586-2.515287 32.350802-1.677199 10.063193-4.192485 17.48728-7.54893 22.281469-2.393513 3.356444-9.105379 6.951319-20.123316 10.784624-11.022031 3.828188-24.800849 7.423063-41.334407 10.778484-16.532535 3.356444-34.865065 6.591115-54.988382 9.704013-20.131503 3.112897-40.375569 5.865591-60.746526 8.264221-20.369933 2.393513-39.890522 4.314259-58.582233 5.754051s-34.982746 2.15406-48.883337 2.15406c-20.6012 0-45.285393-1.438769-74.036203-4.309142-28.755927-2.87549-56.671721-6.469342-83.744309-10.782577-27.074635-4.315282-50.916647-8.750291-71.526033-13.297864-20.608364-4.552689-33.066093-8.503675-37.375236-11.860119-4.796236-3.833305-8.507768-15.45397-11.147898-34.865065-2.635013-19.408025-1.793856-44.443212 2.51938-75.115791 2.87549-17.72878 10.180873-31.145347 21.922289-40.246633 11.746532-9.109472 25.281803-16.419971 40.615023-21.927405 15.335267-5.510504 31.266098-10.301623 47.803749-14.378475 16.533558-4.070712 31.028691-10.180873 43.48949-18.327414 9.101285-5.754051 16.172331-11.142781 21.205974-16.173354 5.030573-5.02955 8.867972-10.063193 11.499915-15.093766 2.636037-5.033643 4.192485-10.301623 4.673439-15.817244 0.476861-5.507434 0.476861-11.377118 0-17.609053l-61.822021-9.342786c-8.628518-5.748934-16.294105-14.616906-23.0029-26.593681-5.748934-10.063193-11.022031-23.842011-15.812127-41.333384-4.79112-17.492396-7.188726-40.134069-7.188726-67.928089 0-23.001877 1.196245-47.560202 3.593851-73.676 2.39863-26.119891 8.264221-51.037397 17.609053-74.755588 9.347902-23.722284 23.2444-45.045939 41.694611-63.97301 18.449187-18.931165 43.488467-32.949436 75.115791-42.054815 18.21485-6.229888 36.421514-9.342786 54.633295-9.342786 5.26798-0.481977 10.301623-0.841158 15.093766-1.079588 4.790096-0.23843 9.825786-0.360204 15.096836-0.360204 23.483854 0 44.564985 4.792143 63.257719 14.378475 18.687618 9.582239 34.981722 22.160719 48.883337 37.735439 13.897521 15.57472 25.517163 33.067116 34.860972 52.470025 9.344832 19.412119 16.892739 39.058574 22.642696 58.94653 5.748934 19.884886 9.702989 39.054481 11.863189 57.503669 2.15099 18.450211 2.752694 34.141588 1.795902 47.079248-0.958838 20.12741-3.955078 38.099736-8.984628 53.912887-5.033643 15.813151-10.184967 29.472242-15.45397 40.974203-6.229888 13.416568-13.181207 25.39539-20.85191 35.936467l-71.160713 11.502985c-0.962931 12.935614 1.916653 25.7515 8.623401 38.455847 6.707772 12.69923 21.567201 23.838941 44.564985 33.425274 11.502985 4.79112 24.325012 8.984628 38.458917 12.57848 14.140045 3.594875 27.798113 7.783267 40.97932 12.57848 13.177114 4.792143 24.918529 11.022031 35.221176 18.692734C795.114033 668.99359 802.182009 679.056784 806.019407 691.518606L806.019407 691.518606 806.019407 691.518606z" fill="#272636"></path></g></g></svg>